<?xml version="1.0" encoding="UTF-8"?>
<!DOCTYPE svg PUBLIC "-//W3C//DTD SVG 1.1//EN" "http://www.w3.org/Graphics/SVG/1.1/DTD/svg11.dtd">
<svg version="1.2" width="99.48mm" height="104.69mm" viewBox="8162 14174 9948 10469" preserveAspectRatio="xMidYMid" fill-rule="evenodd" stroke-width="28.222" stroke-linejoin="round" xmlns="http://www.w3.org/2000/svg" xmlns:ooo="http://xml.openoffice.org/svg/export" xmlns:xlink="http://www.w3.org/1999/xlink" xmlns:presentation="http://sun.com/xmlns/staroffice/presentation" xmlns:smil="http://www.w3.org/2001/SMIL20/" xmlns:anim="urn:oasis:names:tc:opendocument:xmlns:animation:1.0" xml:space="preserve">
 <defs class="ClipPathGroup">
  <clipPath id="presentation_clip_path" clipPathUnits="userSpaceOnUse">
   <rect x="8162" y="14174" width="9948" height="10469"/>
  </clipPath>
  <clipPath id="presentation_clip_path_shrink" clipPathUnits="userSpaceOnUse">
   <rect x="8171" y="14184" width="9929" height="10449"/>
  </clipPath>
 </defs>
 <defs class="TextShapeIndex">
  <g ooo:slide="id1" ooo:id-list="id3 id4 id5 id6 id7 id8"/>
 </defs>
 <defs class="EmbeddedBulletChars">
  <g id="bullet-char-template(57356)" transform="scale(0.00048828125,-0.00048828125)">
   <path d="M 580,1141 L 1163,571 580,0 -4,571 580,1141 Z"/>
  </g>
  <g id="bullet-char-template(57354)" transform="scale(0.00048828125,-0.00048828125)">
   <path d="M 8,1128 L 1137,1128 1137,0 8,0 8,1128 Z"/>
  </g>
  <g id="bullet-char-template(10146)" transform="scale(0.00048828125,-0.00048828125)">
   <path d="M 174,0 L 602,739 174,1481 1456,739 174,0 Z M 1358,739 L 309,1346 659,739 1358,739 Z"/>
  </g>
  <g id="bullet-char-template(10132)" transform="scale(0.00048828125,-0.00048828125)">
   <path d="M 2015,739 L 1276,0 717,0 1260,543 174,543 174,936 1260,936 717,1481 1274,1481 2015,739 Z"/>
  </g>
  <g id="bullet-char-template(10007)" transform="scale(0.00048828125,-0.00048828125)">
   <path d="M 0,-2 C -7,14 -16,27 -25,37 L 356,567 C 262,823 215,952 215,954 215,979 228,992 255,992 264,992 276,990 289,987 310,991 331,999 354,1012 L 381,999 492,748 772,1049 836,1024 860,1049 C 881,1039 901,1025 922,1006 886,937 835,863 770,784 769,783 710,716 594,584 L 774,223 C 774,196 753,168 711,139 L 727,119 C 717,90 699,76 672,76 641,76 570,178 457,381 L 164,-76 C 142,-110 111,-127 72,-127 30,-127 9,-110 8,-76 1,-67 -2,-52 -2,-32 -2,-23 -1,-13 0,-2 Z"/>
  </g>
  <g id="bullet-char-template(10004)" transform="scale(0.00048828125,-0.00048828125)">
   <path d="M 285,-33 C 182,-33 111,30 74,156 52,228 41,333 41,471 41,549 55,616 82,672 116,743 169,778 240,778 293,778 328,747 346,684 L 369,508 C 377,444 397,411 428,410 L 1163,1116 C 1174,1127 1196,1133 1229,1133 1271,1133 1292,1118 1292,1087 L 1292,965 C 1292,929 1282,901 1262,881 L 442,47 C 390,-6 338,-33 285,-33 Z"/>
  </g>
  <g id="bullet-char-template(9679)" transform="scale(0.00048828125,-0.00048828125)">
   <path d="M 813,0 C 632,0 489,54 383,161 276,268 223,411 223,592 223,773 276,916 383,1023 489,1130 632,1184 813,1184 992,1184 1136,1130 1245,1023 1353,916 1407,772 1407,592 1407,412 1353,268 1245,161 1136,54 992,0 813,0 Z"/>
  </g>
  <g id="bullet-char-template(8226)" transform="scale(0.00048828125,-0.00048828125)">
   <path d="M 346,457 C 273,457 209,483 155,535 101,586 74,649 74,723 74,796 101,859 155,911 209,963 273,989 346,989 419,989 480,963 531,910 582,859 608,796 608,723 608,648 583,586 532,535 482,483 420,457 346,457 Z"/>
  </g>
  <g id="bullet-char-template(8211)" transform="scale(0.00048828125,-0.00048828125)">
   <path d="M -4,459 L 1135,459 1135,606 -4,606 -4,459 Z"/>
  </g>
  <g id="bullet-char-template(61548)" transform="scale(0.00048828125,-0.00048828125)">
   <path d="M 173,740 C 173,903 231,1043 346,1159 462,1274 601,1332 765,1332 928,1332 1067,1274 1183,1159 1299,1043 1357,903 1357,740 1357,577 1299,437 1183,322 1067,206 928,148 765,148 601,148 462,206 346,322 231,437 173,577 173,740 Z"/>
  </g>
 </defs>
 <defs class="TextEmbeddedBitmaps"/>
 <g class="SlideGroup">
  <g>
   <g id="container-id1">
    <g id="id1" class="Slide" clip-path="url(#presentation_clip_path)">
     <g class="Page">
      <g class="com.sun.star.drawing.EllipseShape">
       <g id="id3">
        <rect class="BoundingBox" stroke="none" fill="none" x="9260" y="14183" width="3816" height="10384"/>
        <path fill="rgb(0,0,0)" stroke="none" d="M 13074,24565 C 13065,24565 13058,24565 13050,24565 12352,24565 11760,24347 11156,23870 10551,23392 10117,22797 9769,21970 9420,21142 9261,20330 9261,19375 9261,18419 9420,17607 9769,16779 10117,15952 10551,15357 11155,14879 11754,14406 12340,14189 13031,14184 L 13074,24565 Z"/>
        <path fill="none" stroke="rgb(52,101,164)" d="M 13074,24565 C 13065,24565 13058,24565 13050,24565 12352,24565 11760,24347 11156,23870 10551,23392 10117,22797 9769,21970 9420,21142 9261,20330 9261,19375 9261,18419 9420,17607 9769,16779 10117,15952 10551,15357 11155,14879 11754,14406 12340,14189 13031,14184 L 13074,24565 Z"/>
       </g>
      </g>
      <g class="com.sun.star.drawing.CustomShape">
       <g id="id4">
        <rect class="BoundingBox" stroke="none" fill="none" x="11521" y="14174" width="2980" height="10407"/>
        <path fill="rgb(255,255,255)" stroke="none" d="M 13010,14280 C 13794,14280 14393,16487 14393,19376 14393,22265 13794,24473 13010,24473 12226,24473 11627,22265 11627,19376 11627,16487 12226,14280 13010,14280 Z M 11627,14280 L 11627,14280 Z M 14394,24474 L 14394,24474 Z"/>
        <path fill="none" stroke="rgb(0,0,0)" stroke-width="212" stroke-linejoin="round" d="M 13010,14280 C 13794,14280 14393,16487 14393,19376 14393,22265 13794,24473 13010,24473 12226,24473 11627,22265 11627,19376 11627,16487 12226,14280 13010,14280 Z"/>
       </g>
      </g>
      <g class="com.sun.star.drawing.CustomShape">
       <g id="id5">
        <rect class="BoundingBox" stroke="none" fill="none" x="11229" y="18235" width="1417" height="1958"/>
        <path fill="rgb(0,0,0)" stroke="none" d="M 11936,18341 C 12277,18341 12538,18719 12538,19213 12538,19707 12277,20085 11936,20085 11595,20085 11335,19707 11335,19213 11335,18719 11595,18341 11936,18341 Z M 11335,18341 L 11335,18341 Z M 12539,20086 L 12539,20086 Z"/>
        <path fill="none" stroke="rgb(0,0,0)" stroke-width="212" stroke-linejoin="round" d="M 11936,18341 C 12277,18341 12538,18719 12538,19213 12538,19707 12277,20085 11936,20085 11595,20085 11335,19707 11335,19213 11335,18719 11595,18341 11936,18341 Z"/>
       </g>
      </g>
      <g class="com.sun.star.drawing.CustomShape">
       <g id="id6">
        <rect class="BoundingBox" stroke="none" fill="none" x="8162" y="17993" width="1356" height="2409"/>
        <path fill="rgb(0,0,0)" stroke="none" d="M 8458,18099 C 8363,18099 8268,18194 8268,18289 L 8268,20104 C 8268,20199 8363,20295 8458,20295 L 9220,20295 C 9315,20295 9411,20199 9411,20104 L 9411,18289 C 9411,18194 9315,18099 9220,18099 L 8458,18099 Z M 8268,18099 L 8268,18099 Z M 9411,20295 L 9411,20295 Z"/>
        <path fill="none" stroke="rgb(0,0,0)" stroke-width="212" stroke-linejoin="round" d="M 8458,18099 C 8363,18099 8268,18194 8268,18289 L 8268,20104 C 8268,20199 8363,20295 8458,20295 L 9220,20295 C 9315,20295 9411,20199 9411,20104 L 9411,18289 C 9411,18194 9315,18099 9220,18099 L 8458,18099 Z"/>
       </g>
      </g>
      <g class="com.sun.star.drawing.EllipseShape">
       <g id="id7">
        <rect class="BoundingBox" stroke="none" fill="none" x="14781" y="16197" width="1431" height="6836"/>
        <path fill="none" stroke="rgb(0,0,0)" stroke-width="212" stroke-linejoin="round" d="M 15065,16304 C 15385,16650 15615,17059 15805,17619 16011,18228 16105,18826 16105,19529 16105,20231 16011,20829 15805,21438 15599,22047 15342,22484 14985,22835 14951,22869 14922,22896 14888,22926"/>
       </g>
      </g>
      <g class="com.sun.star.drawing.EllipseShape">
       <g id="id8">
        <rect class="BoundingBox" stroke="none" fill="none" x="14981" y="14697" width="3130" height="9948"/>
        <path fill="none" stroke="rgb(0,0,0)" stroke-width="212" stroke-linejoin="round" d="M 15512,14804 C 16280,15313 16830,15913 17285,16737 17779,17632 18004,18510 18004,19544 18004,20577 17779,21455 17285,22350 16791,23245 16177,23887 15321,24404 15240,24453 15171,24492 15088,24537"/>
       </g>
      </g>
     </g>
    </g>
   </g>
  </g>
 </g>
</svg>